<svg xmlns="http://www.w3.org/2000/svg" xmlns:xlink="http://www.w3.org/1999/xlink" width="132" height="132" viewBox="0 0 132 132">
  <defs>
    <linearGradient id="linear-gradient" y1="-0.846" x2="1.196" y2="1.372" gradientUnits="objectBoundingBox">
      <stop offset="0" stop-color="#ff5f5f"/>
      <stop offset="1" stop-color="#fe7b7b" stop-opacity="0.686"/>
    </linearGradient>
  </defs>
  <g id="boxing" transform="translate(-1333 -2373)">
    <rect id="Rectangle_20" data-name="Rectangle 20" width="132" height="132" rx="8" transform="translate(1333 2373)" fill="url(#linear-gradient)"/>
    <g id="_59b44ea26d87f841a5bf8835eb075537" data-name="59b44ea26d87f841a5bf8835eb075537" transform="translate(1379.378 2411.53)">
      <rect id="Rectangle_21" data-name="Rectangle 21" width="19.521" height="20.429" transform="translate(9.534 25.514)" fill="#fff"/>
      <path id="Path_17" data-name="Path 17" d="M21.761,54.755a3.9,3.9,0,0,0,3.9,3.9H37.378a3.9,3.9,0,0,0,3.9-3.9V51.827H21.761ZM49.09,4H13.952a1.952,1.952,0,1,0,0,3.9H27.617V9.856A1.947,1.947,0,0,0,29.459,11.8l-3.916,7.832a3.9,3.9,0,0,0-3.783,3.892v1.952H41.282V23.521A3.9,3.9,0,0,0,37.5,19.629L33.583,11.8a1.947,1.947,0,0,0,1.842-1.941V7.9H49.09a1.952,1.952,0,0,0,0-3.9ZM27.732,19.617l3.789-7.578,3.789,7.578H27.732Z" transform="translate(-12 -4)" fill="#fff"/>
    </g>
  </g>
</svg>
