<svg xmlns="http://www.w3.org/2000/svg" width="36" height="41.143" viewBox="0 0 36 41.143">
  <path id="Icon_awesome-calendar-check" data-name="Icon awesome-calendar-check" d="M35.036,12.857H.964A.964.964,0,0,1,0,11.893V9A3.857,3.857,0,0,1,3.857,5.143H7.714V.964A.964.964,0,0,1,8.679,0h3.214a.964.964,0,0,1,.964.964V5.143H23.143V.964A.964.964,0,0,1,24.107,0h3.214a.964.964,0,0,1,.964.964V5.143h3.857A3.857,3.857,0,0,1,36,9v2.893A.964.964,0,0,1,35.036,12.857ZM.964,15.429H35.036a.964.964,0,0,1,.964.964V37.286a3.857,3.857,0,0,1-3.857,3.857H3.857A3.857,3.857,0,0,1,0,37.286V16.393A.964.964,0,0,1,.964,15.429Zm26.783,7.71-2.264-2.282a.964.964,0,0,0-1.364-.005L15.6,29.3,11.9,25.579a.964.964,0,0,0-1.364-.005L8.258,27.837A.964.964,0,0,0,8.253,29.2l6.638,6.691a.964.964,0,0,0,1.364.005L27.742,24.5a.964.964,0,0,0,.005-1.364Z" fill="#be0638"/>
</svg>
