<svg xmlns="http://www.w3.org/2000/svg" width="50.663" height="32.24" viewBox="0 0 50.663 32.24">
  <path id="Icon_material-group" data-name="Icon material-group" d="M36.043,21.317a6.909,6.909,0,1,0-6.909-6.909A6.88,6.88,0,0,0,36.043,21.317Zm-18.423,0a6.909,6.909,0,1,0-6.909-6.909A6.88,6.88,0,0,0,17.62,21.317Zm0,4.606c-5.366,0-16.12,2.694-16.12,8.06V39.74H33.74V33.983C33.74,28.617,22.986,25.923,17.62,25.923Zm18.423,0c-.668,0-1.428.046-2.234.115,2.671,1.934,4.537,4.537,4.537,7.945V39.74H52.163V33.983C52.163,28.617,41.409,25.923,36.043,25.923Z" transform="translate(-1.5 -7.5)" fill="#be0638"/>
</svg>
