<svg xmlns="http://www.w3.org/2000/svg" width="40.553" height="40.553" viewBox="0 0 40.553 40.553">
  <path id="Icon_map-gym" data-name="Icon map-gym" d="M15.244,38.379A.866.866,0,0,1,15.2,39.6l-1.867,1.746a.859.859,0,0,1-1.213-.044L1.247,29.58a.866.866,0,0,1,.044-1.217l1.87-1.743a.858.858,0,0,1,1.213.044ZM29.119,16.329a.866.866,0,0,1-.044,1.217L17.324,28.524a.859.859,0,0,1-1.213-.044l-2.805-3.027a.866.866,0,0,1,.044-1.217L25.1,13.258a.857.857,0,0,1,1.212.044l2.809,3.027ZM19.242,34.642A.866.866,0,0,1,19.2,35.86L17.329,37.6a.858.858,0,0,1-1.213-.044L5.248,25.842a.866.866,0,0,1,.043-1.217L7.157,22.88a.859.859,0,0,1,1.213.044ZM37.35,16.749a.866.866,0,0,1-.045,1.217l-1.869,1.745a.86.86,0,0,1-1.214-.043L23.353,7.952A.865.865,0,0,1,23.4,6.735L25.27,4.985a.857.857,0,0,1,1.212.044Zm3.992-3.731a.867.867,0,0,1-.044,1.218l-1.865,1.744a.857.857,0,0,1-1.212-.043L27.353,4.216A.867.867,0,0,1,27.4,3L29.263,1.25a.855.855,0,0,1,1.211.043Z" transform="translate(-1.018 -1.019)" fill="#fff"/>
</svg>
