<svg xmlns="http://www.w3.org/2000/svg" width="47.88" height="47.88" viewBox="0 0 47.88 47.88">
  <path id="instagram" d="M25.94,20a5.937,5.937,0,1,0,5.937,5.937A5.937,5.937,0,0,0,25.94,20Zm23.772-5.865a15.633,15.633,0,0,0-1.005-5.41,9.576,9.576,0,0,0-5.554-5.554,15.633,15.633,0,0,0-5.41-1.005C34.654,2,33.744,2,25.94,2s-8.714,0-11.8.168a15.633,15.633,0,0,0-5.41,1.005A9.576,9.576,0,0,0,3.173,8.727a15.633,15.633,0,0,0-1.005,5.41C2,17.226,2,18.136,2,25.94s0,8.714.168,11.8a16.423,16.423,0,0,0,1.005,5.434,9.432,9.432,0,0,0,2.179,3.352,9.313,9.313,0,0,0,3.376,2.179,15.633,15.633,0,0,0,5.41,1.005c3.088.168,4,.168,11.8.168s8.714,0,11.8-.168a15.633,15.633,0,0,0,5.41-1.005,9.313,9.313,0,0,0,3.376-2.179,9.432,9.432,0,0,0,2.179-3.352,15.8,15.8,0,0,0,1.005-5.434c.168-3.088.168-4,.168-11.8S49.88,17.226,49.712,14.138ZM43.632,33.29A13.717,13.717,0,0,1,42.7,37.6a9.241,9.241,0,0,1-5.1,5.1,13.718,13.718,0,0,1-4.333.838H18.614a13.718,13.718,0,0,1-4.333-.838,8.912,8.912,0,0,1-5.1-5.1,13.143,13.143,0,0,1-.814-4.333c0-1.891,0-2.394,0-7.326V18.614a13.143,13.143,0,0,1,.814-4.333,8.4,8.4,0,0,1,2.059-3.136,8.594,8.594,0,0,1,3.04-1.963,13.718,13.718,0,0,1,4.333-.838H33.266a13.718,13.718,0,0,1,4.333.838,8.912,8.912,0,0,1,5.1,5.1,13.718,13.718,0,0,1,.838,4.333c0,1.891,0,2.394,0,7.326s.168,5.434.1,7.326ZM39.8,15.478A5.7,5.7,0,0,0,36.426,12.1a9.576,9.576,0,0,0-3.3-.527H18.758a9.576,9.576,0,0,0-3.3.622,5.7,5.7,0,0,0-3.376,3.256,10.222,10.222,0,0,0-.5,3.3V33.122a10.222,10.222,0,0,0,.622,3.3A5.7,5.7,0,0,0,15.574,39.8a10.222,10.222,0,0,0,3.184.622H33.122a9.576,9.576,0,0,0,3.3-.622A5.7,5.7,0,0,0,39.8,36.426a9.576,9.576,0,0,0,.622-3.3V18.758a9.049,9.049,0,0,0-.622-3.3ZM25.94,35.085a9.121,9.121,0,0,1-9.121-9.145h0a9.145,9.145,0,1,1,9.121,9.145ZM35.516,18.59a2.155,2.155,0,0,1,0-4.285h0a2.155,2.155,0,0,1,0,4.285Z" transform="translate(-2 -2)" fill="#fff"/>
</svg>
