<svg xmlns="http://www.w3.org/2000/svg" xmlns:xlink="http://www.w3.org/1999/xlink" width="132" height="132" viewBox="0 0 132 132">
  <defs>
    <linearGradient id="linear-gradient" y1="-0.846" x2="1.196" y2="1.372" gradientUnits="objectBoundingBox">
      <stop offset="0" stop-color="#ff5f5f"/>
      <stop offset="1" stop-color="#fe7b7b" stop-opacity="0.686"/>
    </linearGradient>
  </defs>
  <g id="lift" transform="translate(-682 -2303)">
    <rect id="Rectangle_20" data-name="Rectangle 20" width="132" height="132" rx="8" transform="translate(682 2303)" fill="url(#linear-gradient)"/>
    <path id="Icon_map-gym" data-name="Icon map-gym" d="M22.544,57.55a1.31,1.31,0,0,1-.065,1.842l-2.825,2.642a1.3,1.3,0,0,1-1.835-.066L1.364,44.235a1.31,1.31,0,0,1,.066-1.842L4.26,39.755a1.3,1.3,0,0,1,1.835.066Zm21-33.366a1.31,1.31,0,0,1-.066,1.842L25.691,42.638a1.3,1.3,0,0,1-1.835-.066l-4.245-4.58a1.31,1.31,0,0,1,.066-1.842L37.455,19.538a1.3,1.3,0,0,1,1.834.066l4.25,4.58ZM28.594,51.9a1.311,1.311,0,0,1-.066,1.842L25.7,56.378a1.3,1.3,0,0,1-1.835-.066L7.418,38.579a1.31,1.31,0,0,1,.065-1.842L10.307,34.1a1.3,1.3,0,0,1,1.835.066Zm27.4-27.075a1.31,1.31,0,0,1-.068,1.842L53.1,29.3a1.3,1.3,0,0,1-1.837-.065L34.813,11.509a1.309,1.309,0,0,1,.065-1.842L37.714,7.02a1.3,1.3,0,0,1,1.834.066Zm6.041-5.646a1.313,1.313,0,0,1-.066,1.843l-2.823,2.639a1.3,1.3,0,0,1-1.834-.065L40.866,5.856a1.313,1.313,0,0,1,.065-1.843l2.825-2.645a1.294,1.294,0,0,1,1.833.065Z" transform="translate(716.301 2337.3)" fill="#fff"/>
  </g>
</svg>
