<svg xmlns="http://www.w3.org/2000/svg" xmlns:xlink="http://www.w3.org/1999/xlink" width="132" height="132" viewBox="0 0 132 132">
  <defs>
    <linearGradient id="linear-gradient" y1="-0.846" x2="1.196" y2="1.372" gradientUnits="objectBoundingBox">
      <stop offset="0" stop-color="#ff5f5f"/>
      <stop offset="1" stop-color="#fe7b7b" stop-opacity="0.686"/>
    </linearGradient>
    <filter id="Icon_awesome-running" x="26.013" y="22.582" width="79.501" height="93.691" filterUnits="userSpaceOnUse">
      <feOffset dy="3" input="SourceAlpha"/>
      <feGaussianBlur stdDeviation="3" result="blur"/>
      <feFlood flood-opacity="0.161"/>
      <feComposite operator="in" in2="blur"/>
      <feComposite in="SourceGraphic"/>
    </filter>
  </defs>
  <g id="run" transform="translate(-682 -2303)">
    <rect id="Rectangle_20" data-name="Rectangle 20" width="132" height="132" rx="8" transform="translate(682 2303)" fill="url(#linear-gradient)"/>
    <g transform="matrix(1, 0, 0, 1, 682, 2303)" filter="url(#Icon_awesome-running)">
      <path id="Icon_awesome-running-2" data-name="Icon awesome-running" d="M40.212,14.193a7.1,7.1,0,1,0-7.1-7.1A7.1,7.1,0,0,0,40.212,14.193Zm-23.4,32.742-2.188,5.1H4.731a4.731,4.731,0,0,0,0,9.462h11.45A7.081,7.081,0,0,0,22.7,57.2L24,54.165l-1.577-.931A14.078,14.078,0,0,1,16.808,46.935ZM56.77,33.115H50.261l-3.853-7.872a14.186,14.186,0,0,0-9.134-7.531L26.766,14.586A14.133,14.133,0,0,0,14.815,17.12l-5.865,4.5a4.73,4.73,0,1,0,5.757,7.507l5.868-4.5a4.6,4.6,0,0,1,3.736-.908l2.173.646-5.538,12.92a9.487,9.487,0,0,0,3.888,11.873L37.4,56.575l-4.061,12.97a4.73,4.73,0,1,0,9.029,2.827l4.678-14.941a7.126,7.126,0,0,0-3.2-8.041L34.79,44.047l4.629-11.573,3,6.125a7.14,7.14,0,0,0,6.373,3.975H56.77a4.73,4.73,0,1,0,0-9.46Z" transform="translate(35.01 28.58)" fill="#fff"/>
    </g>
  </g>
</svg>
