<svg xmlns="http://www.w3.org/2000/svg" xmlns:xlink="http://www.w3.org/1999/xlink" width="132" height="132" viewBox="0 0 132 132">
  <defs>
    <linearGradient id="linear-gradient" y1="-0.846" x2="1.196" y2="1.372" gradientUnits="objectBoundingBox">
      <stop offset="0" stop-color="#ff5f5f"/>
      <stop offset="1" stop-color="#fe7b7b" stop-opacity="0.686"/>
    </linearGradient>
  </defs>
  <g id="swim" transform="translate(-682 -2303)">
    <rect id="Rectangle_20" data-name="Rectangle 20" width="132" height="132" rx="8" transform="translate(682 2303)" fill="url(#linear-gradient)"/>
    <path id="Icon_awesome-swimmer" data-name="Icon awesome-swimmer" d="M43.206,27.335a5.258,5.258,0,0,1-3.3.9,5.256,5.256,0,0,1-3.3-.9,7.556,7.556,0,0,0-5.128-2.166H29.916a7.554,7.554,0,0,0-5.128,2.166,5.258,5.258,0,0,1-3.3.9,5.256,5.256,0,0,1-3.3-.9,7.628,7.628,0,0,0-4.738-2.126l10.825-7.732-1.727-1.234a1.556,1.556,0,0,0-1.211-.25l-9.627,2.065a4.605,4.605,0,0,1-1.93-9.006l9.627-2.065A10.765,10.765,0,0,1,27.9,8.75l7.676,5.484a10.7,10.7,0,0,1,2.563,2.584l6.584,9.4A8.828,8.828,0,0,0,43.206,27.335ZM1.535,31.308H3.07A8.09,8.09,0,0,0,8.45,29.591,4.545,4.545,0,0,1,11.5,28.238h1.564a4.545,4.545,0,0,1,3.048,1.353,8.08,8.08,0,0,0,5.379,1.717,8.09,8.09,0,0,0,5.381-1.717,4.545,4.545,0,0,1,3.048-1.353H31.48a4.545,4.545,0,0,1,3.048,1.353,8.08,8.08,0,0,0,5.379,1.717,8.09,8.09,0,0,0,5.381-1.717,4.545,4.545,0,0,1,3.048-1.353H49.9a4.545,4.545,0,0,1,3.048,1.353,8.08,8.08,0,0,0,5.379,1.717H59.86A1.534,1.534,0,0,1,61.4,32.843v3.07a1.534,1.534,0,0,1-1.535,1.535H58.325a14.3,14.3,0,0,1-9.209-3.054,14.3,14.3,0,0,1-9.209,3.054A14.3,14.3,0,0,1,30.7,34.393a14.3,14.3,0,0,1-9.209,3.054,14.3,14.3,0,0,1-9.209-3.054A14.3,14.3,0,0,1,3.07,37.448H1.535A1.534,1.534,0,0,1,0,35.913v-3.07A1.534,1.534,0,0,1,1.535,31.308ZM50.651,22.1a7.674,7.674,0,1,1,7.674-7.674A7.675,7.675,0,0,1,50.651,22.1Z" transform="translate(717.695 2346.937)" fill="#fff"/>
  </g>
</svg>
