<svg xmlns="http://www.w3.org/2000/svg" width="47.94" height="47.94" viewBox="0 0 47.94 47.94">
  <path id="twitter" d="M57.8,16H22.144A6.167,6.167,0,0,0,16,22.144V57.8a6.167,6.167,0,0,0,6.144,6.144H57.8A6.167,6.167,0,0,0,63.94,57.8V22.144A6.167,6.167,0,0,0,57.8,16ZM52.7,33.545q.017.419.017.837a17.75,17.75,0,0,1-.446,3.9A18.273,18.273,0,0,1,34.035,52.766a18.8,18.8,0,0,1-10.064-2.9,13.409,13.409,0,0,0,9.721-2.676A6.556,6.556,0,0,1,27.56,42.7a6.616,6.616,0,0,0,2.966-.11,6.533,6.533,0,0,1-4.8-4,6.317,6.317,0,0,1-.435-2.341v-.081a6.608,6.608,0,0,0,2.959.81A6.446,6.446,0,0,1,25.32,31.6a6.378,6.378,0,0,1,.885-3.249,18.732,18.732,0,0,0,13.527,6.753,6.569,6.569,0,0,1,11.183-5.9,13.2,13.2,0,0,0,4.171-1.57A6.5,6.5,0,0,1,52.2,31.217,13.3,13.3,0,0,0,55.968,30.2,13.2,13.2,0,0,1,52.7,33.545Z" transform="translate(-16 -16)" fill="#fff" fill-rule="evenodd"/>
</svg>
