<svg xmlns="http://www.w3.org/2000/svg" width="47.94" height="47.94" viewBox="0 0 47.94 47.94">
  <path id="whatsapp" d="M49.94,12.906a30.226,30.226,0,0,0-.24-3.092,10.284,10.284,0,0,0-.887-2.589,8.773,8.773,0,0,0-1.7-2.4,9.372,9.372,0,0,0-2.4-1.7,10.259,10.259,0,0,0-2.589-.863A24.473,24.473,0,0,0,39.058,2H12.906a30.227,30.227,0,0,0-3.092.24,10.283,10.283,0,0,0-2.589.887,8.773,8.773,0,0,0-2.4,1.7,9.372,9.372,0,0,0-1.7,2.4,10.259,10.259,0,0,0-.863,2.589A24.474,24.474,0,0,0,2,12.882V39.034a30.227,30.227,0,0,0,.24,3.092,10.283,10.283,0,0,0,.887,2.589,8.773,8.773,0,0,0,1.7,2.4,9.372,9.372,0,0,0,2.4,1.7,10.259,10.259,0,0,0,2.589.863,24.472,24.472,0,0,0,3.068.264H39.034a30.225,30.225,0,0,0,3.092-.24,10.283,10.283,0,0,0,2.589-.887,8.773,8.773,0,0,0,2.4-1.7,9.372,9.372,0,0,0,1.7-2.4,10.259,10.259,0,0,0,.863-2.589,24.473,24.473,0,0,0,.264-3.068V12.906ZM26.521,42.749h0A17.067,17.067,0,0,1,18.3,40.592l-9.109,2.4,2.4-8.917a17.127,17.127,0,1,1,14.933,8.677Zm0-31.473a14.382,14.382,0,0,0-12.1,21.885l.336.551-1.438,5.249,5.465-1.486.527.312a14.382,14.382,0,0,0,7.191,1.99h0a14.382,14.382,0,0,0,0-28.764ZM34.911,31.7a4.363,4.363,0,0,1-2.9,2.037,5.585,5.585,0,0,1-2.685-.168,21.333,21.333,0,0,1-2.4-.911,19.176,19.176,0,0,1-7.335-6.472,8.342,8.342,0,0,1-1.75-4.434,4.794,4.794,0,0,1,1.51-3.6,1.558,1.558,0,0,1,1.151-.527h.671c.264,0,.623,0,.959.743s1.222,2.972,1.342,3.188a.815.815,0,0,1,0,.743,2.733,2.733,0,0,1-.431.719c-.216.264-.455.575-.647.767a.634.634,0,0,0-.192.863,13.327,13.327,0,0,0,2.4,2.972,11.985,11.985,0,0,0,3.452,2.133c.431.216.7.192.935,0a13.613,13.613,0,0,0,1.366-1.678c.288-.431.575-.36.959-.216s2.517,1.175,2.948,1.39.7.312.815.5a3.739,3.739,0,0,1-.168,1.87Z" transform="translate(-2 -2)" fill="#fff"/>
</svg>
