<svg id="youtube" xmlns="http://www.w3.org/2000/svg" width="48" height="48" viewBox="0 0 48 48">
  <path id="Path_14" data-name="Path 14" d="M9,2H45.621V46.611H9Z" transform="translate(-3.008 -0.668)" fill="#fff" fill-rule="evenodd"/>
  <rect id="Rectangle_13" data-name="Rectangle 13" width="48" height="48" rx="4" fill="#fff"/>
  <path id="Path_15" data-name="Path 15" d="M44.1,21.481a67.167,67.167,0,0,1,.528,7.633v.407a67.167,67.167,0,0,1-.528,7.633c-.659,2.649-1.9,3.67-4.175,4.038-1.314.194-7.617.443-12.62.443h.023c-5,0-11.306-.249-12.62-.443-2.278-.369-3.516-1.389-4.175-4.038A67.167,67.167,0,0,1,10,29.522v-.407a67.167,67.167,0,0,1,.528-7.633c.659-2.649,1.9-3.669,4.175-4.038C16.016,17.249,22.32,17,27.323,17H27.3c5,0,11.307.249,12.62.443,2.278.368,3.516,1.389,4.175,4.038ZM23.716,24.325V34.2l9.2-5.052-9.2-4.818Z" transform="translate(-3.342 -5.681)" fill-rule="evenodd"/>
</svg>
